/* XPM */
static char * enemyy_xpm[] = {
"32 32 491 2",
"  	c #6B88FE",
". 	c #6C88FE",
"+ 	c #7686F8",
"@ 	c #C56B9E",
"# 	c #CC6990",
"$ 	c #CA6994",
"% 	c #CA6893",
"& 	c #CA6995",
"* 	c #CD678C",
"= 	c #BE6FAC",
"- 	c #6D88FD",
"; 	c #6C89FE",
"> 	c #6F87FC",
", 	c #E25A2F",
"' 	c #F65F11",
") 	c #F05C11",
"! 	c #F15D11",
"~ 	c #EF5C11",
"{ 	c #FB6112",
"] 	c #D86067",
"^ 	c #7287FA",
"/ 	c #C56C9F",
"( 	c #D06686",
"_ 	c #E15A3B",
": 	c #E45923",
"< 	c #E35927",
"[ 	c #E45927",
"} 	c #E35827",
"| 	c #E45818",
"1 	c #DE5C4B",
"2 	c #E05B45",
"3 	c #F75F11",
"4 	c #E45810",
"5 	c #FD6112",
"6 	c #D56274",
"7 	c #6E87FC",
"8 	c #D16581",
"9 	c #E15B40",
"0 	c #E3591E",
"a 	c #E45718",
"b 	c #DE5E4F",
"c 	c #D2657F",
"d 	c #BC6FAF",
"e 	c #6E88FD",
"f 	c #DC5E56",
"g 	c #FD6212",
"h 	c #D1657F",
"i 	c #C56CA0",
"j 	c #D4647A",
"k 	c #E05B40",
"l 	c #E35718",
"m 	c #E4591E",
"n 	c #E35810",
"o 	c #DD5D4F",
"p 	c #D46379",
"q 	c #BA70B1",
"r 	c #DC6066",
"s 	c #FA6010",
"t 	c #E6591D",
"u 	c #E65817",
"v 	c #FF6210",
"w 	c #D0688B",
"x 	c #C46CA2",
"y 	c #D46274",
"z 	c #854854",
"A 	c #6F3D3B",
"B 	c #753F38",
"C 	c #7B3F34",
"D 	c #DC551C",
"E 	c #E6590F",
"F 	c #E35811",
"G 	c #E8590D",
"H 	c #D3531F",
"I 	c #703D35",
"J 	c #784038",
"K 	c #6B3B35",
"L 	c #924D5D",
"M 	c #DA6371",
"N 	c #B871B4",
"O 	c #D76372",
"P 	c #F86011",
"Q 	c #583A3C",
"R 	c #022E38",
"S 	c #022832",
"T 	c #1D2A34",
"U 	c #DA5620",
"V 	c #E85916",
"W 	c #E25711",
"X 	c #EA5A15",
"Y 	c #CD5224",
"Z 	c #022431",
"` 	c #072B32",
" .	c #022D39",
"..	c #793F39",
"+.	c #FF630E",
"@.	c #C96994",
"#.	c #6B88FD",
"$.	c #C26DA4",
"%.	c #D7616D",
"&.	c #DE5B45",
"*.	c #E45819",
"=.	c #D25326",
"-.	c #CE552A",
";.	c #DFB99E",
">.	c #DFC1A7",
",.	c #7E554C",
"'.	c #76362F",
").	c #DF571E",
"!.	c #E8590E",
"~.	c #D75623",
"{.	c #63292A",
"].	c #906B5D",
"^.	c #E4C8AC",
"/.	c #DCAF95",
"(.	c #CD491C",
"_.	c #D5572E",
":.	c #E5580F",
"<.	c #DD5D51",
"[.	c #D76069",
"}.	c #B672B7",
"|.	c #D4647C",
"1.	c #FA6012",
"2.	c #E5591A",
"3.	c #E85808",
"4.	c #E85B1A",
"5.	c #F8CEAD",
"6.	c #F5D7B7",
"7.	c #52554D",
"8.	c #272328",
"9.	c #DD5924",
"0.	c #E65918",
"a.	c #E45817",
"b.	c #D3582A",
"c.	c #00001F",
"d.	c #7B6E62",
"e.	c #FCDEBD",
"f.	c #F4C2A2",
"g.	c #E84D0D",
"h.	c #E85B17",
"i.	c #FE6212",
"j.	c #C66C9C",
"k.	c #D06788",
"l.	c #ED5B11",
"m.	c #E45913",
"n.	c #E3570C",
"o.	c #E2591C",
"p.	c #F2C9A9",
"q.	c #F0D3B4",
"r.	c #62554D",
"s.	c #2B2428",
"t.	c #693C36",
"u.	c #6B3C38",
"v.	c #6A3B35",
"w.	c #6A3A35",
"x.	c #6B3C37",
"y.	c #673E39",
"z.	c #00101F",
"A.	c #816D5F",
"B.	c #F7DABA",
"C.	c #EEBD9E",
"D.	c #E24C0D",
"E.	c #E35A19",
"F.	c #C16898",
"G.	c #6580F0",
"H.	c #6981F1",
"I.	c #6C88FD",
"J.	c #D06685",
"K.	c #E35923",
"L.	c #E4570B",
"M.	c #E4591C",
"N.	c #F3CAAA",
"O.	c #F1D4B5",
"P.	c #62564E",
"Q.	c #1C252A",
"R.	c #24373A",
"S.	c #163337",
"T.	c #073136",
"U.	c #063136",
"V.	c #053136",
"W.	c #0A3236",
"X.	c #2A393B",
"Y.	c #001221",
"Z.	c #806E60",
"`.	c #F8DBBB",
" +	c #EFBE9F",
".+	c #E34C0D",
"++	c #E45A18",
"@+	c #C06693",
"#+	c #627DEA",
"$+	c #6980EE",
"%+	c #C26DA5",
"&+	c #DB5F5D",
"*+	c #E65910",
"=+	c #E55818",
"-+	c #F2D4B5",
";+	c #5A5047",
">+	c #3D3836",
",+	c #DEC1A6",
"'+	c #E5C1A5",
")+	c #D45D37",
"!+	c #D45325",
"~+	c #D24D1C",
"{+	c #D56C4B",
"]+	c #E8C8AC",
"^+	c #D4B99F",
"/+	c #000010",
"(+	c #7E6D5F",
"_+	c #DE5B49",
":+	c #DB5B4B",
"<+	c #B671B6",
"[+	c #CE6788",
"}+	c #60554F",
"|+	c #4C4442",
"1+	c #F0D2B3",
"2+	c #F8D2B1",
"3+	c #E8632B",
"4+	c #E85805",
"5+	c #E85100",
"6+	c #E97448",
"7+	c #FCDAB9",
"8+	c #E6C8AA",
"9+	c #040924",
"0+	c #827064",
"a+	c #FC6112",
"b+	c #C26DA6",
"c+	c #CB688F",
"d+	c #E45A1E",
"e+	c #F2CAAA",
"f+	c #E8C9AC",
"g+	c #E7C8AC",
"h+	c #F3D5B5",
"i+	c #F2CDAD",
"j+	c #E3632E",
"k+	c #E3560A",
"l+	c #E25000",
"m+	c #E6744C",
"n+	c #F4D4B4",
"o+	c #F1D2B3",
"p+	c #E5C7AB",
"q+	c #E9CBAC",
"r+	c #F6DAB9",
"s+	c #F0C0A0",
"t+	c #E45A19",
"u+	c #E1592B",
"v+	c #BC699D",
"w+	c #CD688F",
"x+	c #F05D11",
"y+	c #F0C6A8",
"z+	c #F5D5B4",
"A+	c #F6D5B5",
"B+	c #F3D4B4",
"C+	c #F1CCAC",
"D+	c #E56432",
"E+	c #E4580F",
"F+	c #E35200",
"G+	c #F3D1B3",
"H+	c #F3D3B3",
"I+	c #F6D6B5",
"J+	c #F5D4B3",
"K+	c #F3D6B6",
"L+	c #EFBC9E",
"M+	c #E44D0D",
"N+	c #BC679A",
"O+	c #CE678C",
"P+	c #F45E11",
"Q+	c #E55819",
"R+	c #E46B43",
"S+	c #E46E47",
"T+	c #E46A41",
"U+	c #E56C44",
"V+	c #E56A41",
"W+	c #E45608",
"X+	c #E45500",
"Y+	c #E56C43",
"Z+	c #E46B42",
"`+	c #E46F48",
" @	c #E46940",
".@	c #E45811",
"+@	c #BC6799",
"@@	c #CA6A96",
"#@	c #E25932",
"$@	c #E45300",
"%@	c #E45B24",
"&@	c #E35C26",
"*@	c #E45B25",
"=@	c #E35C27",
"-@	c #E36130",
";@	c #E36131",
">@	c #E3602F",
",@	c #E35B25",
"'@	c #E45200",
")@	c #E45400",
"!@	c #E05A35",
"~@	c #E85910",
"{@	c #B8689F",
"]@	c #7A85F6",
"^@	c #7985F6",
"/@	c #D3647C",
"(@	c #F25D11",
"_@	c #E55810",
":@	c #E75910",
"<@	c #E75A13",
"[@	c #E55400",
"}@	c #E55D26",
"|@	c #F0C4A7",
"1@	c #F2CFB2",
"2@	c #F1CBAD",
"3@	c #F1CCAE",
"4@	c #F2D0B3",
"5@	c #EFBB9D",
"6@	c #E34F00",
"7@	c #E75A12",
"8@	c #C6658B",
"9@	c #677AE3",
"0@	c #6F79DF",
"a@	c #CB6890",
"b@	c #DD5B45",
"c@	c #DE5A3B",
"d@	c #DE5A3E",
"e@	c #DE5B3F",
"f@	c #E46236",
"g@	c #E46A42",
"h@	c #F3CEAE",
"i@	c #F5D8B8",
"j@	c #F5D6B5",
"k@	c #F5D6B6",
"l@	c #F5D5B5",
"m@	c #F6DABA",
"n@	c #F1C5A5",
"o@	c #E35F2E",
"p@	c #E2633B",
"q@	c #DE5A40",
"r@	c #DF5A40",
"s@	c #DC5B47",
"t@	c #BC689B",
"u@	c #6480EF",
"v@	c #617BE7",
"w@	c #7686F6",
"x@	c #7C85F5",
"y@	c #747CE5",
"z@	c #7179DF",
"A@	c #7079E1",
"B@	c #727AE0",
"C@	c #E4C4B7",
"D@	c #F5D1B0",
"E@	c #F2D3B3",
"F@	c #F4D3B3",
"G@	c #F3D1B5",
"H@	c #F9D4B3",
"I@	c #DABCBC",
"J@	c #6678E2",
"K@	c #7279DE",
"L@	c #7078DE",
"M@	c #7178DE",
"N@	c #6B79E1",
"O@	c #607AE4",
"P@	c #6680EF",
"Q@	c #617CE8",
"R@	c #5E78E1",
"S@	c #5F79E3",
"T@	c #5E79E1",
"U@	c #E6CBBC",
"V@	c #FBDBBA",
"W@	c #F2D4B4",
"X@	c #F3D4B5",
"Y@	c #FFE0BE",
"Z@	c #DAC4C3",
"`@	c #637EEC",
" #	c #617DE9",
".#	c #627DEB",
"+#	c #6581F2",
"@#	c #48528C",
"##	c #393539",
"$#	c #393B55",
"%#	c #404054",
"&#	c #FAD9B8",
"*#	c #F7D6B6",
"=#	c #DDC4C3",
"-#	c #6880EE",
";#	c #6C87FC",
">#	c #6B87FC",
",#	c #6A87FD",
"'#	c #6884F6",
")#	c #414B7B",
"!#	c #383737",
"~#	c #303132",
"{#	c #393836",
"]#	c #DCBFA6",
"^#	c #EDCDB0",
"/#	c #E9CAAD",
"(#	c #EACBAF",
"_#	c #F3D3B4",
":#	c #F1D1B4",
"<#	c #F2D2B3",
"[#	c #D1BBBC",
"}#	c #5D77E0",
"|#	c #647DE7",
"1#	c #485593",
"2#	c #323335",
"3#	c #353744",
"4#	c #333436",
"5#	c #484345",
"6#	c #4D494A",
"7#	c #434042",
"8#	c #5F5754",
"9#	c #EFD0B0",
"0#	c #F9D8B8",
"a#	c #FCDBBA",
"b#	c #E0C3A6",
"c#	c #3C3C42",
"d#	c #4A4651",
"e#	c #333333",
"f#	c #4A599B",
"g#	c #445089",
"h#	c #363636",
"i#	c #34353B",
"j#	c #2C2E2F",
"k#	c #2E2F30",
"l#	c #1C2429",
"m#	c #49443F",
"n#	c #E0C3A9",
"o#	c #EBCCB1",
"p#	c #F2D3B4",
"q#	c #F0D1B2",
"r#	c #EDCDB2",
"s#	c #D1B69D",
"t#	c #011923",
"u#	c #32333B",
"v#	c #373736",
"w#	c #6A87FB",
"x#	c #444F86",
"y#	c #373737",
"z#	c #333338",
"A#	c #363534",
"B#	c #3A393A",
"C#	c #35363C",
"D#	c #645B55",
"E#	c #F9D8B7",
"F#	c #E5C7A9",
"G#	c #3C3B42",
"H#	c #424042",
"I#	c #373738",
"J#	c #36353A",
"K#	c #434F87",
"L#	c #647FEE",
"M#	c #4A5A9E",
"N#	c #3A3F5D",
"O#	c #37394B",
"P#	c #343439",
"Q#	c #343438",
"R#	c #37363A",
"S#	c #192228",
"T#	c #544E4B",
"U#	c #E3C7B7",
"V#	c #E9CCBC",
"W#	c #E8CBBB",
"X#	c #E5CAB8",
"Y#	c #EACCB0",
"Z#	c #D4B9A1",
"`#	c #21272F",
" $	c #2F3134",
".$	c #343433",
"+$	c #373C54",
"@$	c #475698",
"#$	c #414A7A",
"$$	c #343434",
"%$	c #373636",
"&$	c #3A3B50",
"*$	c #637AE0",
"=$	c #657DE6",
"-$	c #667EE8",
";$	c #6075D6",
">$	c #3C3A38",
",$	c #3B3A38",
"'$	c #363535",
")$	c #353534",
"!$	c #414B7C",
"~$	c #607AE5",
"{$	c #485696",
"]$	c #393F5B",
"^$	c #3B4267",
"/$	c #3B4163",
"($	c #3B4265",
"_$	c #393F5E",
":$	c #3F4876",
"<$	c #637FED",
"[$	c #5C76DE",
"}$	c #39426A",
"|$	c #394165",
"1$	c #3B4166",
"2$	c #465493",
"                  .   + @ # $ % % & * = . -                     ",
"                  ;   > , ' ) ! ! ~ { ]     .                   ",
"              .   ^ / ( _ : < [ [ } | 1 ( =   -                 ",
"              .     2 3 | 4 4 4 4 4 | | 5 6     .               ",
"          . . 7 / 8 9 0 | 4 4 4 4 4 4 a | b c d   e             ",
"          ;     f 3 | 4 4 4 4 4 4 4 4 4 4 | g h     .           ",
"        .   i j k l | 4 4 4 4 4 4 4 4 4 4 m n o p q   e         ",
"      .     r s t u 4 4 4 4 4 4 4 4 4 4 4 4 t t v w     .       ",
"    .   x y z A B C D E n 4 4 4 4 4 4 F G H I J K L M N   e     ",
"        O P Q R S T U V n 4 4 4 4 4 4 W X Y Z `  ...+.@.  .     ",
"#.  $.%.&.*.=.-.;.>.,.'.).E 4 4 4 F !.~.{.].^./.(._.:.<.[.}.  e ",
"-   |.1.| 2.3.4.5.6.7.8.9.0.a a.a.l V b.c.d.e.f.g.h.| | i.j.  > ",
".   k.l.[ m.n.o.p.q.r.s.t.u.v.K K w.x.y.z.A.B.C.D.E.4 } ~ F.G.H.",
"I.  J.~ K.m.L.M.N.O.P.Q.R.S.T.U.V.W.S.X.Y.Z.`. +.+++4 K.! @+#+$+",
"%+&+k *+=+m.L.M.N.-+;+>+,+'+)+!+~+{+]+^+/+(+`. +.+++4 | *+_+:+<+",
"[+1.0 =+4 m.L.M.N.-+}+|+1+2+3+4+5+6+7+8+9+0+`. +.+++4 4 4 0 a+b+",
"c+~ } 4 4 m.L.d+e+6.f+g+h+i+j+k+l+m+n+o+p+q+r+s+.+t+4 4 4 u+! v+",
"w+x+< 4 4 m.L.d+y+h+z+A+B+C+D+E+F+m+G+H+I+J+K+L+M+++4 4 4 } ! N+",
"O+P+K.4 4 4 4 Q+R+S+T+T+U+V+W+X+X+m.Y+Y+T+Z+`+ @L..@4 4 4 K.' +@",
"@@*+#@| a | | | $@$@%@&@*@=@-@-@;@>@&@,@=@M.'@)@*.| | a =+!@~@{@",
"]@^@/@(@_@:@:@<@[@}@|@1@2@3@2@2@2@2@3@2@4@5@6@_@7@:@:@4 P+8@9@0@",
"    a@0 b@c@d@e@f@g@h@i@j@k@k@k@k@k@k@l@m@n@o@p@q@r@r@s@_@t@u@v@",
". . w@x@y@z@A@B@C@D@E@F@F@F@F@F@F@F@F@F@n+G@H@I@J@K@L@L@M@N@O@P@",
"        Q@R@S@T@U@V@W@H+n+n+n+n+n+n+n+n+n+X@Y@Z@`@ #.#.#.##+v@+#",
"        @###$#%#f+&#I+*#n+n+n+n+n+n+n+n+n+X@Y@=#.#-#- ;#;#>#,##.",
"    '#'#)#!#~#{#]#^#/#(#_#H+n+n+n+n+n+n+B+:#<#[#}#|#            ",
"#.  1#2#3#4#2#4#5#6#7#8#9#0#H+n+n+n+n+H+a#b#c#d#e#f#  #.        ",
"#.  g#h#i#e#e#e#j#k#l#m#n#o#p#h+B+X@B+q#r#s#t#u#v#1#  w#        ",
"#.  x#y#z#e#e#e#A#A#A#B#C#D#z+a#&#E#a#F#G#H#I#J#y#K#`@L#        ",
"#.  M#N#O#4#z#z#P#Q#P#R#S#T#U#V#W#X#Y#Z#`# $.$O#+$@$#+L#        ",
"    w#  #$h#$$$$$$$$$$$$%$&$*$=$-$;$>$,$'$)$y#!$Q@O@~$L#        ",
"        {$]$^$/$/$/$/$($_$:$S@Q@<$[$}$|$/$1$+$2$.#Q@Q@G.        "};
