/* XPM */
static char *_61ab50791c54d3aad5a10344b64648as4miGqmC98UZFxX5[] = {
/* columns rows colors chars-per-pixel */
"32 32 216 2 ",
"   c #010202",
".  c #080007",
"X  c #020A00",
"o  c #01020A",
"O  c #09000B",
"+  c #0D0900",
"@  c #0B1900",
"#  c #10061E",
"$  c #003403",
"%  c #013903",
"&  c #043A09",
"*  c #130921",
"=  c #151E2F",
"-  c #121734",
";  c #15173D",
":  c #091835",
">  c #00212A",
",  c #0B2031",
"<  c #004B02",
"1  c #054805",
"2  c #015301",
"3  c #025D00",
"4  c #045A0C",
"5  c #005F10",
"6  c #19581F",
"7  c #135110",
"8  c #036400",
"9  c #016A01",
"0  c #016C0C",
"q  c #06670B",
"w  c #017501",
"e  c #027B03",
"r  c #087C02",
"t  c #027409",
"y  c #037C0A",
"u  c #0B7508",
"i  c #157B00",
"p  c #037A12",
"a  c #007713",
"s  c #1A7113",
"d  c #257A15",
"f  c #1A4E29",
"g  c #1B5E23",
"h  c #1B5C2C",
"j  c #195429",
"k  c #1E5C35",
"l  c #235E25",
"z  c #205829",
"x  c #235729",
"c  c #275838",
"v  c #255932",
"b  c #1D612D",
"n  c #1D6221",
"m  c #147A24",
"M  c #176130",
"N  c #1F6438",
"B  c #206627",
"V  c #22622E",
"C  c #0F1644",
"Z  c #181947",
"A  c #321C5D",
"S  c #182C4C",
"D  c #1E3746",
"F  c #1F2853",
"G  c #1F3655",
"H  c #092A4B",
"J  c #2A2E51",
"K  c #273557",
"L  c #038202",
"P  c #098400",
"I  c #01830B",
"U  c #0B830C",
"Y  c #0E890A",
"T  c #128D05",
"R  c #158A0D",
"E  c #17890C",
"W  c #0F930A",
"Q  c #199709",
"!  c #0E8716",
"~  c #138C14",
"^  c #138D19",
"/  c #178A17",
"(  c #199313",
")  c #1F9910",
"_  c #17911B",
"`  c #19921D",
"'  c #18991C",
"]  c #248E06",
"[  c #239D0E",
"{  c #258D13",
"}  c #209A11",
"|  c #2D9E18",
" . c #249B18",
".. c #379E17",
"X. c #1DA419",
"o. c #25AD0B",
"O. c #22A114",
"+. c #2BA316",
"@. c #2EA11B",
"#. c #2BAE1B",
"$. c #26AA16",
"%. c #31A314",
"&. c #38AE19",
"*. c #36A21B",
"=. c #2BB417",
"-. c #2BB41C",
";. c #2ABA16",
":. c #32B914",
">. c #32B31D",
",. c #34BA1D",
"<. c #0D8322",
"1. c #1C9521",
"2. c #189A20",
"3. c #15932F",
"4. c #2F963D",
"5. c #21A720",
"6. c #2AA725",
"7. c #38A82A",
"8. c #2DB523",
"9. c #34BC23",
"0. c #3BBD24",
"q. c #35B629",
"w. c #36B829",
"e. c #45B927",
"r. c #48BD38",
"t. c #2EC41D",
"y. c #3AC91C",
"u. c #35C71A",
"i. c #37D01B",
"p. c #3AD51C",
"a. c #3FDA1F",
"s. c #3ED317",
"d. c #3BC222",
"f. c #36CD24",
"g. c #39CC21",
"h. c #3ECC2D",
"j. c #38C629",
"k. c #3DD224",
"l. c #3AD626",
"z. c #3DE128",
"x. c #42C81F",
"c. c #41D51D",
"v. c #49DC1C",
"b. c #47D61F",
"n. c #46E51A",
"m. c #50E91F",
"M. c #45C52D",
"N. c #4BC72A",
"B. c #42CC2B",
"V. c #45C223",
"C. c #45D525",
"Z. c #49D324",
"A. c #43DA22",
"S. c #4DD824",
"D. c #45D42B",
"F. c #44DC2A",
"G. c #4ADA2C",
"H. c #49D52C",
"J. c #46C339",
"K. c #44C634",
"L. c #4ADD33",
"P. c #46D930",
"I. c #51DE32",
"U. c #44E523",
"Y. c #45E12B",
"T. c #4DE52C",
"R. c #47EC2C",
"E. c #4BEA2A",
"W. c #44E827",
"Q. c #54EC2B",
"!. c #52EA25",
"~. c #4EFC25",
"^. c #4BF62C",
"/. c #4DFD2E",
"(. c #48F628",
"). c #52F52C",
"_. c #54FE2C",
"`. c #59FF2D",
"'. c #57FF24",
"]. c #4DE433",
"[. c #4FEA32",
"{. c #4AEB37",
"}. c #51EC34",
"|. c #54EE3A",
" X c #59EF36",
".X c #4CF631",
"XX c #4EF933",
"oX c #4DFD3B",
"OX c #53F533",
"+X c #53FD33",
"@X c #59FF34",
"#X c #56F03A",
"$X c #54FD3B",
"%X c #5BFD3A",
"&X c #5BF731",
"*X c #62FF30",
"=X c #56FC47",
"-X c #57FC48",
";X c #5CF75B",
":X c #384981",
">X c #4D5FB6",
",X c #4E5FB9",
"<X c #4F61B7",
"1X c #4E61B9",
"2X c #4668BF",
"3X c #5061B9",
"4X c #4E65C3",
"5X c #596ED0",
"6X c #5F75E2",
"7X c #5F87FF",
"8X c #6685FB",
"9X c #6A86FD",
"0X c #6B89FE",
"qX c #668EFF",
"wX c #728BFC",
"eX c #7584FF",
/* pixels */
"Z 7 B h k v f f j j f x b h b g h g V h 6 h k n M c z b B N 1 A ",
"> J.}.U.E.).(.oX^.^.OXQ.R.}.T.!.[.E.Q.T.).#XY.!.m.!.R.{.I.(.B.H ",
"; { $.2.<.r [.+X`.@X%X[ W ' ' m ^ U U ! Y y ! O._ U $. .@.3.9 J ",
"= Z.$Xl.w w  X@X.X(.oXT C.*Xn.w y w y w e w w M.c.@.].~.+XK.< J ",
"- S.XXG.w w Y.~.@X/.$XR H._.n.q y e w e e y e T p.D.-.^.`.B.< S ",
"Z b.$XD.9 t OX@XOX`.).E H.@XU.0 y w e y r w 9 M.M.=.n.+X%Xg.2 J ",
": v./.L.t t U.@XXX+X_.T C.%XU.w y I e e e p e ) f.l.;.).=Xk.< D ",
"C v.@XZ.w w (.+X/._.OXY A.%Xn.t e w w y w e w 0.k.:.S.$XXXB.< K ",
"- D.%Xz.0 u !._.+XOXOX( a.).E.0 y w p L w p w O.h.Z.;.)._.B.< D ",
"= S.&XA.0 a R.+X~.@X~.P F.%XW.9 y w L t y e t :.k.=.B.OX=Xy.< K ",
"C Y.%Xn.w w (.%X@X`.&X' D.%XE.w e I w L e r e 6.l.s.s.+X/.l.1 G ",
"o @.J.#.8 q 7.V.0.B.0.q @.N.&.3 3 3 8 2 4 3 2 e...q M.j.h.4.& @ ",
"4XS . #     + o     X o     . O o . o o   X X X   o   . #   F 4X",
"qX5X:Xd J.x.s 2 ] B.e.e.N.7.2 8 3 8 2 8 4 % e.{ i r.V.u % :X6XqX",
"0XwX2X+.;X'.} 9 u.+X_.~.~.f.9 L w y L w T L.d.f.).+X@X( % 4XwX7X",
"wX9X1X+.%X$X| < q.+X&X/.+Xh.8 y w y e w ! >.C.t.l.'.OX` % <XeX9X",
"9X0X<X| =X`.) 3 ,.+XOX/.@Xg.9 y e e y 9 ( H.;.d.[.`.XX_ $ <X0X9X",
"0X0X1X| =X`.) 3 :.+X+X_.@Xy.9 y e y w e r =.F.d.p._.OX` % 3X9X8X",
"0X9X<X| =X`.) 3 9.+X+X_.@Xg.9 y e y L t ~ A.9.y.}.`..X1.$ >X0X9X",
"0X0X<X| =X_.) 3 ,.+X+X_.+Xg.9 y w y w e P >.a.9.i.@X$X^ $ <X0X0X",
"9X9X<X| =X+X} 3 ,.+X+X_.%Xg.9 y w y e w R A.w.y.#X_..X1.$ 3XwX9X",
"0X9X<X| =X_.} 3 ,.XX+X~.+Xg.9 y w t e y P >.l.0.i.+X+X^ $ 3X0X8X",
"0X9X<X| =X`.) 3 :.+X+X_.@Xg.9 y w y L 9 R G.-.y.}.`.XX` $ <XwX9X",
"0X9X<X| =X`.) 3 9.XX+X_.@Xy.8 y w y w y w o.P.u.i._.OX` $ 3X0X8X",
"0X8X3X@.=X_.) 3 ,.XX+X_.+Xy.9 y w y e 9 R I.=.g.|.`./.^ % >X9X0X",
"0X9X3X@.=X`.) 3 ,.+X+X_.+Xg.9 y w y w e P o.F.9.i.`.+X~ $ <X9X8X",
"0X9X1X@.=X_.) 3 ,.+X+X_.@Xg.9 y e e I w R F.8.i.[._./._ $ 3XwX8X",
"0X9X1X@.=X`.} 3 ,.XX+X~.@Xg.9 y w p 9 e P >.c.9.g.`.XX^ % <X9XqX",
"0X9X3X@.=X_.) 3 ,.XX+X_.@Xg.9 y e e I 9 R A.q.y.{._.XX_ $ ,X0X8X",
"0X9X1X| =X`.) 3 ,.+X+X_.@Xy.9 y w y w y P =.A.d.i.`.+X_ % 3X9X9X",
"9X9X1X| =X_.) 8 ,.+XOX_.+Xg.9 y w y y w R G.=.y.#X+X^.` & <X0X0X",
"0X0X<X@.=X`.) 3 ,.XX+X_.@Xg.9 y w e w t e o.].,.i.`.+X_ $ 3X0X8X"
};
