/* XPM */
static char *b251d09b180044b6bfb90546c2938132gLJRGWD93KZlGCT5[] = {
/* columns rows colors chars-per-pixel */
"32 32 236 2 ",
"   c #020302",
".  c #0A0003",
"X  c #03010B",
"o  c #090607",
"O  c #140302",
"+  c #1C0000",
"@  c #180607",
"#  c #18160E",
"$  c #140914",
"%  c #071217",
"&  c #0B1315",
"*  c #200002",
"=  c #2B070A",
"-  c #261608",
";  c #2A1513",
":  c #311A12",
">  c #300B11",
",  c #332019",
"<  c #15132C",
"1  c #2D1429",
"2  c #382425",
"3  c #292822",
"4  c #1D3132",
"5  c #58071C",
"6  c #4D0E09",
"7  c #621C1E",
"8  c #5C3416",
"9  c #6B2F14",
"0  c #590E26",
"q  c #521530",
"w  c #680B27",
"e  c #6E1729",
"r  c #6C0A31",
"t  c #681435",
"y  c #76122F",
"u  c #43253D",
"i  c #702E30",
"p  c #744E14",
"a  c #4B403C",
"s  c #724B2F",
"d  c #151F42",
"f  c #2D194C",
"g  c #3B2441",
"h  c #19276D",
"j  c #2B2770",
"k  c #491D46",
"l  c #7E1041",
"z  c #4E2F52",
"x  c #6E374B",
"c  c #503B6F",
"v  c #663D67",
"b  c #6E3877",
"n  c #3E4363",
"m  c #574248",
"M  c #514A5C",
"N  c #58467B",
"B  c #634768",
"V  c #6C4D72",
"C  c #754F42",
"Z  c #82341E",
"A  c #863F2B",
"S  c #821735",
"D  c #895419",
"F  c #905712",
"G  c #966116",
"H  c #86641D",
"J  c #874C25",
"K  c #865328",
"L  c #834834",
"P  c #9B5737",
"I  c #A34D30",
"U  c #8C662A",
"Y  c #AE6630",
"T  c #AA1455",
"R  c #9D2756",
"E  c #92254F",
"W  c #A92558",
"Q  c #B72558",
"!  c #B02D53",
"~  c #87346F",
"^  c #A82865",
"/  c #B52866",
"(  c #B73563",
")  c #A31357",
"_  c #D11F5B",
"`  c #C42F5D",
"'  c #D23258",
"]  c #EB3A5A",
"[  c #EE2F5A",
"{  c #C72A67",
"}  c #D52C66",
"|  c #C73365",
" . c #DA346A",
".. c #D03871",
"X. c #E93867",
"o. c #FE3D6D",
"O. c #F63A6A",
"+. c #EB3773",
"@. c #FE3E73",
"#. c #FF3C7A",
"$. c #F73A76",
"%. c #EC2E6D",
"&. c #855A4E",
"*. c #AF5C50",
"=. c #8E6756",
"-. c #B36A52",
";. c #905074",
":. c #92616B",
">. c #8F6A73",
",. c #B4466D",
"<. c #F5425F",
"1. c #CA624C",
"2. c #D4566E",
"3. c #FD426D",
"4. c #F84769",
"5. c #E64478",
"6. c #F54371",
"7. c #FE4273",
"8. c #FF4579",
"9. c #DD666A",
"0. c #E1646C",
"q. c #AD8F7E",
"w. c #0F078D",
"e. c #032981",
"r. c #1C3390",
"t. c #272998",
"y. c #29399D",
"u. c #313E8D",
"i. c #2537A4",
"p. c #53318A",
"a. c #67308E",
"s. c #1B549A",
"d. c #284B9C",
"f. c #2F5291",
"g. c #0E6F96",
"h. c #236498",
"j. c #38789A",
"k. c #337292",
"l. c #3347A6",
"z. c #3155AC",
"x. c #3A77A2",
"c. c #2B6CA3",
"v. c #564787",
"b. c #5C4B95",
"n. c #5B539A",
"m. c #674B93",
"M. c #5A6A97",
"N. c #437B98",
"B. c #436895",
"V. c #776A8B",
"C. c #5358B2",
"Z. c #645ABB",
"A. c #4578A5",
"S. c #7A75A8",
"D. c #7673B6",
"F. c #4B58C0",
"G. c #566AC6",
"H. c #5A6CD8",
"J. c #5374DF",
"K. c #6278DE",
"L. c #7372CD",
"P. c #5A7CE3",
"I. c #5A6BE2",
"U. c #687CE8",
"Y. c #687EF9",
"T. c #747EF0",
"R. c #803180",
"E. c #874F86",
"W. c #94698A",
"Q. c #926692",
"!. c #907091",
"~. c #8774B6",
"^. c #9473B0",
"/. c #A17590",
"(. c #FF4886",
"). c #8873C9",
"_. c #8A7DEF",
"`. c #39869C",
"'. c #3784A4",
"]. c #43889C",
"[. c #448AA5",
"{. c #5187AC",
"}. c #4B96A7",
"|. c #5895A8",
" X c #5799B6",
".X c #659DB7",
"XX c #55A0AB",
"oX c #57ABB6",
"OX c #6AA8B6",
"+X c #72C5BB",
"@X c #6FC6BC",
"#X c #78E2BE",
"$X c #6985D9",
"%X c #6AB5C1",
"&X c #78BCC5",
"*X c #5E8BFD",
"=X c #5F8CF1",
"-X c #6C86EA",
";X c #7484E8",
":X c #6482F4",
">X c #6C84F3",
",X c #6B8AF5",
"<X c #6585FD",
"1X c #6B84FD",
"2X c #648BFD",
"3X c #6C8AFE",
"4X c #668AF5",
"5X c #7285FD",
"6X c #728BFD",
"7X c #7487F4",
"8X c #6A91FF",
"9X c #6591FC",
"0X c #5AC5C1",
"qX c #5DC8D0",
"wX c #76C7C7",
"eX c #79D6CB",
"rX c #7CDBD6",
"tX c #6FC7C8",
"yX c #79E4D2",
"uX c #AF8F88",
"iX c #B8A392",
"pX c #F48F97",
"aX c #DDB49C",
"sX c #D2AC99",
"dX c #FF9EA2",
"fX c #DAB3A8",
"gX c #EEB1AF",
"hX c #85C1B9",
"jX c #ECC7B6",
"kX c #9684C0",
"lX c #8085FB",
"zX c #84D7CB",
"xX c #86D7D5",
"cX c #86CBD3",
"vX c #83E3D9",
"bX c #83E2CC",
/* pixels */
"5X6X1X<X,X*X4X<X:XT.*X$Xz 0 q t q i K W.>X=XU.3X3X3X<X3X,X3X1X5X",
"3X<X3X8X>X3X7X5XN c c v R W ^ W T ^ ! ~ p.c c C.3X:X3X>X>X3X2X*X",
"3X<X5X6X>X7Xn.b.E Q } } +.X.5.X.O.+.%.%.} ` W ~ b.C.7X3X3X>X5X3X",
"1X3X5X:XC.m.E W  .6.8.7.7.@.3.4.3.4.4.3.8.(.+.| E ~ m.H.2X4X3X>X",
"2X*X3X;Xk y Q ( 6.6.O.o.@.7.@.@.o.@.#.o.4.o.@.X./ W 0 v.4X2X3X1X",
"5X1X<X,Xu w / / o.o.@.7.7.3.3.#.7.@.#.@.3.7.7.X.^ ^ 5 m.6X3X5X7X",
"4X3X5X5Xz t / / 3.$.6.4.7.3.4.7.@.3.7.6.6.$.7.$./ W 5 n.3X4X<X4X",
"3XY.>XU.k w W R X.#.o.3.#.8.o.#.7.3.@.7.o.o.<. .W R 6 v.U.>X5X2X",
"4XT.>.:.1 > 5 w / ' 6.7.o.7.$.3.o.5.7.$.#.] Q R 5 5 @ z W.Q.4X1X",
"V./.jXaX3   6 6 w S | { | | | | { | ` | { ` r y 6 0 . =.jXaXW.~.",
"P -.dXpX1   = ; @ = t l r y y w t y e e t t @ + = : X &.dXpXY Q.",
"L.~.1.Y > < , 3 o # + * * O @ $ @ = + + + + #   3 2 1 9 1.*.L.;X",
"3X>XD.S.8 s iXq.# . $ $ . .   X   . o . $ X . a iXuXp B D.D.<X8X",
"3X1X>X>X~.kXaXgXuX>..       O * O o X     4 uXq.fXfX~.).5X<X5X4X",
"5X2X<X5X_.).L U gXfXA i O             6 Z =.jXsXs >.T.lX,X<X3X5X",
"1X9X;X$XV =.P I -.-.9.2.g 1 y e y t < x 0.2.-.*.I P :.V.U.7X<X3X",
"7X5X=.:.7 i 4.4.O.+.a.b.e.a.[ X.%.} e.p.m.m.] X.4.2.7 i =.!.:X7X",
"W.W.9 9 ' ] #.o.7.5.g.g.x.A./.^./.!.k.x.g.M.{ +.#.O.} ' 8 x W.S.",
"U F q 0 3.8.{ | _ ,.j.N.hX@X0XqX0XtX@XOXk.M.T Q | ..(.' $ 6 Y W.",
").).s L  .} T ^ ~ V.OX%XyXeX X.X.XOXvXeXOXOXE.;.T Q %.Q 2 x ~.L.",
"<XT.~.^.b b ;.W.oXOXvXxXrXcX|.|.|.XXcXxXxXrXoX.X;.E.R.m.Z.L.<X:X",
"=X3X-X>Xi.d.'.`.+XwXtX+XwXwXzXeXzXzXwXwXtXwX@X%X'.c.r.F.Y.-X3X2X",
"<X1X3X-Xy.d.A.'.|.XX}.}.`.}.zXrXxXeX`.[.}.}.|.[.A.A.t.C.2X<X5X3X",
"3X3X3X1Xi.l.N.].eXzXxXeXN.{.xXeXvXtXB.oXxXeXeX&X`.j.y.C.2X4X5X,X",
"3X3X<X>Xl.z.N.[.xXeXzXrX`.}.yXxXeXcXj. XrX#XbXtXx.A.y.F.6X2X4X>X",
"1X<X3X3XP.J.d.f.}.|.|. Xx.}.xX+X X}.].[. X|. X{.d.z.:XP.:X3X6X1X",
"3X3X,X<X3X:Xi.y.x.'.k.N.[.j.A.x.r.f.].N.j.A.x.k.t.l.3X,X3X1X3X3X",
"3X<X6X6X4X,XI.I.z.s.c.s.h.d.w.w.t.r.h.h.h.h.h.c.I.U.:X:X6X3X<X3X",
"3X6X1X<X2X2XG.G.V B v B v v h h h j B b v v N n.G.H.8X8X<X6X1X<X",
"Y.6X3X>XK.G.m m F D G H G J % & % 2 G F F G P L x M H.P.,X1X,X<X",
"6X<X3X-Xh g s J p J D p D C u.f.u.v.p D D K D J J s f l.6X1X6X3X",
"-X3X<X>Xd . 2 : - ; ; 1 ; n 1XY.2XK.# : = ; # ; , 2 X f.3X2X1X7X"
};
