/* XPM */
static char *_0d0a3c84cbb4bcf8d3906724a3c1986G4bEE4Thira9BpHZ[] = {
/* columns rows colors chars-per-pixel */
"32 32 252 2 ",
"   c #020301",
".  c #090102",
"X  c #010407",
"o  c #180100",
"O  c #020113",
"+  c #0A0313",
"@  c #001D15",
"#  c #2B0D13",
"$  c #0C231C",
"%  c #0D0F26",
"&  c #271125",
"*  c #39373D",
"=  c #37282A",
"-  c #2C2216",
";  c #580118",
":  c #4E1314",
">  c #650505",
",  c #68061B",
"<  c #65121C",
"1  c #4D162E",
"2  c #6B0E2A",
"3  c #522B2D",
"4  c #692528",
"5  c #7C3938",
"6  c #752F36",
"7  c #5E2412",
"8  c #32433B",
"9  c #7A481A",
"0  c #704B17",
"q  c #73452B",
"w  c #1B2B4C",
"e  c #1C2C57",
"r  c #262B58",
"t  c #28345C",
"y  c #362F51",
"u  c #1E2665",
"i  c #2C3A75",
"p  c #343875",
"a  c #2D2F6A",
"s  c #190E61",
"d  c #473353",
"f  c #79385A",
"g  c #4D346B",
"h  c #713870",
"j  c #36457A",
"k  c #46464B",
"l  c #555152",
"z  c #6D4457",
"x  c #694E55",
"c  c #595A68",
"v  c #5E4674",
"b  c #754767",
"n  c #6C5B65",
"m  c #694567",
"M  c #5C6467",
"N  c #656565",
"B  c #766666",
"V  c #717579",
"C  c #6A6E53",
"Z  c #971232",
"A  c #903336",
"S  c #9E001B",
"D  c #985C08",
"F  c #91561B",
"G  c #9B6405",
"H  c #966217",
"J  c #8E5929",
"K  c #925828",
"L  c #936A31",
"P  c #AF5D2D",
"I  c #8F1E45",
"U  c #99194A",
"Y  c #B11556",
"T  c #8F2E4C",
"R  c #B33150",
"E  c #B82E69",
"W  c #971471",
"Q  c #C50040",
"!  c #E00B5F",
"~  c #C53558",
"^  c #CA3654",
"/  c #C42867",
"(  c #D3366C",
")  c #EB3E78",
"_  c #FC3C75",
"`  c #F53369",
"'  c #ED375D",
"]  c #B64F4C",
"[  c #8E6A54",
"{  c #947E7E",
"}  c #8C7374",
"|  c #9A4E4E",
" . c #C64951",
".. c #DC495B",
"X. c #DB665D",
"o. c #D44071",
"O. c #E74266",
"+. c #FA4973",
"@. c #F05667",
"#. c #DE6C62",
"$. c #E96C67",
"%. c #F27071",
"&. c #EC5D57",
"*. c #BE8301",
"=. c #CF8F00",
"-. c #F0CB3E",
";. c #97876E",
":. c #AA8476",
">. c #F3935F",
",. c #113594",
"<. c #263A99",
"1. c #2C3688",
"2. c #363EB1",
"3. c #175494",
"4. c #104C94",
"5. c #39468A",
"6. c #274799",
"7. c #394697",
"8. c #30569A",
"9. c #0B7792",
"0. c #356B95",
"q. c #3A48A7",
"w. c #3A51BE",
"e. c #3149AE",
"r. c #3D7CAC",
"t. c #0D4EA0",
"y. c #455698",
"u. c #514B91",
"i. c #417599",
"p. c #517A92",
"a. c #776B82",
"s. c #5757A4",
"d. c #475BBA",
"f. c #4A56A8",
"g. c #7354B5",
"h. c #4D66AF",
"j. c #706FA6",
"k. c #685191",
"l. c #3659CC",
"z. c #536AC5",
"x. c #5A70CE",
"c. c #5774D9",
"v. c #566ED6",
"b. c #636FC6",
"n. c #6774D0",
"m. c #5A78E4",
"M. c #5E75F3",
"N. c #6576E9",
"B. c #6B7DF7",
"V. c #7177EF",
"C. c #535FCB",
"Z. c #A71F80",
"A. c #905785",
"S. c #A24981",
"D. c #91699A",
"F. c #9A7A9F",
"G. c #9B6B9C",
"H. c #CE5682",
"J. c #CE7FB6",
"K. c #B17DCF",
"L. c #CF7EC1",
"P. c #E17BC5",
"I. c #34839B",
"U. c #49849C",
"Y. c #548E9A",
"T. c #4687A5",
"R. c #4893A8",
"E. c #4E8EB1",
"W. c #58B6BA",
"Q. c #53A6B6",
"!. c #70AFAE",
"~. c #65AA98",
"^. c #4EC1BE",
"/. c #71C5BD",
"(. c #6AABC1",
"). c #5E88FA",
"_. c #6986EA",
"`. c #6385F3",
"'. c #6B83F5",
"]. c #6B8AF6",
"[. c #6584FD",
"{. c #6B85FD",
"}. c #658BFD",
"|. c #6C8BFD",
" X c #6389F2",
".X c #7284FE",
"XX c #728BFE",
"oX c #7B85FA",
"OX c #6A90FB",
"+X c #6E8EF1",
"@X c #77CCC9",
"#X c #7BD5CD",
"$X c #78D7C8",
"%X c #7DD8D9",
"&X c #6DD0C7",
"*X c #7BE1CD",
"=X c #52C3C1",
"-X c #858B8A",
";X c #9C8987",
":X c #938E98",
">X c #A6948D",
",X c #A69B98",
"<X c #B7978E",
"1X c #AEA69A",
"2X c #9A9CA8",
"3X c #938FAE",
"4X c #9FA0A4",
"5X c #AFB6BC",
"6X c #BCB8BB",
"7X c #A39BA6",
"8X c #FB9A90",
"9X c #F98E88",
"0X c #CDA89A",
"qX c #F5AF95",
"wX c #F881A1",
"eX c #D6B6A7",
"rX c #DCBAB0",
"tX c #C8B3AB",
"yX c #F6AEA7",
"uX c #CC9B8C",
"iX c #D2C7AE",
"pX c #F8D3BB",
"aX c #FCCCB3",
"sX c #BC81C3",
"dX c #AEB6CD",
"fX c #D384C6",
"gX c #84CECC",
"hX c #84D7CA",
"jX c #85DAD7",
"kX c #8ED5D7",
"lX c #B6CCCE",
"zX c #8BE2D5",
"xX c #82DFE6",
"cX c #BDECE7",
"vX c #A3E2CF",
"bX c #D4D6CA",
"nX c #CECCCE",
"mX c #F9CCC6",
"MX c #FFD7C7",
"NX c #EBD6D0",
"BX c #F3ECDC",
"VX c #DADDE8",
"CX c #ECDBE6",
"ZX c #DAE8E6",
"AX c #CEECEB",
"SX c #E8E8ED",
"DX c #FAF7E8",
"FX c #ECEAF0",
"GX c #FDFDFD",
"HX c #F8F5FC",
"JX c #F2F0F4",
"KX c #D6E6D9",
/* pixels */
".X{.|.|.'.[.XXB.].V.s.3 d d g g d g N.+X}.|._.}. X|..X.X|.}.[.|.",
"|.]..X{.{.}.h.g i v / ` >.-.=.*.@.! h p p 1.i 5.N..Xy.t i 7.oX'.",
"{.OX_.'.N.s.f I Y O.#.>.aXDXBXBXqX>...( , 8 6XnXj.j.5XnX* % B.+X",
".X Xc.g.h I ( ) ( ] ] L >XdXdX5X;.G ] ~ : n VXGXKX6XnXdXx.c.`.}.",
"{.}.u.; U E ~ ^ 6   + %         X O . @   n CXDXFX6X* a x.m.|.|.",
"|.'.s.1 6 T 1   .   X X   $ @ @   X X o   l tXnXM O -X7X;X-Xb.c.",
"{.|.k.1 & O   & d N B B x > < < n C M N = - l N N :XnXDXGXHXc t ",
"oXoXk.1 1 3 : l lXJXHXSXqX@.%.%.mXSXDXHXV l VXHXHXbXV V SXZXk p ",
"sXwXf - R %.yXmXDXFX2Xn 0XpXpXmX{ n SXHX} l ZXHX,X      * y % i ",
"P.>.A & <XmXaXpXDXFX-X  0XMXaXNX[   FXHXV k CXGXSXVXCXCXVXbXk t ",
"L.%.T - x ;.iXMXyXyXeXeXpXMXMXMXrXeXyXyXeXtX,X:X,X4X2X,X1X3Xn.m.",
"J.9XA % { 1X>X;X| A 9XyX8X8X8X9X8XqX] S :.;.3 # > S Q S : t .XXX",
"K.fX| 7 rXMX} .   3 A ^  . . . .] ^ 1 @ . . o 4 T ( +.+.7 y B.}.",
"oX{.n.D.uX0X<X>XB     o           .     F.;Xl ; I E _ ( 2 y oX|.",
"`..X|.'.n.A.eXmX;Xo 6 T A 5 5 A q 5 4 5 eXrX} , T / _ ' < y B. X",
"XX[.}.oX_.oXj.F K P X.%.$.$.$.%.$.%.%.#.A 4 U E R / ' ( h 5.B.{.",
"{.}.{.].}.N.y.< ~ ' ] 9 F K F K J K J K D K T E ) O.Z j `..X{..X",
"|.{.+X.Xz.k.( O.G.j.p.i.A.R E R a.p.0.U.H.O.O.` _ ) Z j [.XX}.[.",
"}.XXh.7.w   Y ( A.9.W.jXV > , ; !.@XT.i.H._ +.+.( E 2 g [.}.'.|.",
"v.s.dXnXnXiXF.m Y.=XjXhX!.~.~.!.@XjX^.W.:XS.W W Y Z.D.n.}.`..X}.",
"d.& nXGXVXdXdXnXVXAXvX$XjXxXhXzX*XgXcXAXlXlX(.Q.D.g._.}.{.].XX{.",
"w.+ KXGX3Xp VXGXGXHXAX$XgX#X%XhX$X#XGXGXGXGXcX@XR.2.M..X.X X}..X",
"z.u.dXKX3Xs.dXZXSXFXvX&XjXhX%XhXjX%XZXSXHXAXvX@XE.2.M.}.}.XX|.[.",
"{.{.y.% s 4.9.I.W.%X$X#X@X$XgX$XhX#X&X*X@X#XzXgXE.e.N.'.).XX{.|.",
"XX'.d.5.8.r./.hXhX@X(.T.I.T.T.T.T.U.@XhXjX#XzX#XQ.0.8.w.B.XXB..X",
"'. Xl.<.8.U./.hXW.T.8.,.<.6.6.6.<.6.r.R.&X#XhX$XQ.0.7.f.N. X].'.",
"XX{.w.<.y.T.E.R.R.i.8.q.C.V.B.N.B.B.e.6.i.E.R.E.E.i.6.q.B.XX|.[.",
"[.XXd.7.6.3.t.4.3.3.,.e.m.|.|.|.[.'.N.c.d.8.3.4.3.3.,.l.}.].].[.",
"}.|.q.s g z z m f b g 1.c.[.[..X].].}.|.q.r m b z z b v s.d.}.{.",
"m.b.3X,X[ H G D D J 3 r z.|.|.|.{.}.}.).f.= 9 P G D G [ <X,Xj.N.",
"f.O 1XiX:.q 0 q 9 6 = r x.}. X].|.}.{..Xu.& 0 9 5 9 0 [ eXeXd w ",
"d.r r r r r r e w t w i v.{.|.{.'.|.{..Xf.w r u u w r u r e w 5."
};
