/* XPM */
static char *fd920a4a2b52497be3e0afc07df409e4ncdTArUZcw7aa63R[] = {
/* columns rows colors chars-per-pixel */
"32 32 254 2 ",
"   c #020202",
".  c #03010B",
"X  c #060707",
"o  c #170608",
"O  c #060517",
"+  c #0E1113",
"@  c #2B1404",
"#  c #361215",
"$  c #3D2204",
"%  c #131838",
"&  c #141227",
"*  c #361225",
"=  c #383637",
"-  c #2A2627",
";  c #11292D",
":  c #430404",
">  c #4D1514",
",  c #6A031B",
"<  c #770304",
"1  c #512D15",
"2  c #70350E",
"3  c #48122D",
"4  c #503034",
"5  c #663427",
"6  c #753333",
"7  c #70302C",
"8  c #790728",
"9  c #734518",
"0  c #6F4A04",
"q  c #5B553F",
"w  c #78563A",
"e  c #1C1E5B",
"r  c #1C2B5C",
"t  c #162B47",
"y  c #283155",
"u  c #272B58",
"i  c #03006A",
"p  c #1B2673",
"a  c #32386B",
"s  c #2B3A75",
"d  c #373877",
"f  c #252F65",
"g  c #550E45",
"h  c #6F1F42",
"j  c #453044",
"k  c #7D3F44",
"l  c #4E336E",
"z  c #7F237A",
"x  c #3D4840",
"c  c #36447B",
"v  c #314774",
"b  c #56564F",
"n  c #6F5258",
"m  c #564574",
"M  c #6B4F67",
"N  c #706F6D",
"B  c #881B00",
"V  c #8A2A00",
"C  c #871237",
"Z  c #AD1932",
"A  c #8D352B",
"S  c #C13F3F",
"D  c #CC0122",
"F  c #8C5302",
"G  c #985A08",
"H  c #875919",
"J  c #8C4D12",
"K  c #97611B",
"L  c #895929",
"P  c #8D5332",
"I  c #A85336",
"U  c #9C643B",
"Y  c #A1752C",
"T  c #901253",
"R  c #B80054",
"E  c #A80A5F",
"W  c #922952",
"Q  c #A32558",
"!  c #B2294F",
"~  c #9B2360",
"^  c #AC2E6B",
"/  c #C93658",
"(  c #D13259",
")  c #C03F6B",
"_  c #D1326B",
"`  c #E63867",
"'  c #FA3F6B",
"]  c #E83576",
"[  c #F23B7E",
"{  c #E80851",
"}  c #8D4D4C",
"|  c #B55748",
" . c #AD5150",
".. c #946955",
"X. c #BC6A57",
"o. c #B34469",
"O. c #97786A",
"+. c #926F74",
"@. c #BE6263",
"#. c #864F66",
"$. c #CB4654",
"%. c #D2585A",
"&. c #CC5053",
"*. c #E66B5C",
"=. c #E1714C",
"-. c #D15063",
";. c #F14A69",
":. c #C86A6E",
">. c #E86968",
",. c #FB6A6A",
"<. c #F7736C",
"1. c #F86B73",
"2. c #FC7675",
"3. c #EA706F",
"4. c #DB5E48",
"5. c #B18639",
"6. c #AD8718",
"7. c #998A6D",
"8. c #B49542",
"9. c #C6954E",
"0. c #FF895F",
"q. c #CFAD51",
"w. c #F38F72",
"e. c #D8C56C",
"r. c #F6D860",
"t. c #FFE36E",
"y. c #021494",
"u. c #052E8D",
"i. c #0D2A90",
"p. c #232D98",
"a. c #2D378B",
"s. c #2529A0",
"d. c #6C3F80",
"f. c #1C4891",
"g. c #23428A",
"h. c #374386",
"j. c #364898",
"k. c #3A539B",
"l. c #294E94",
"z. c #386695",
"x. c #3A7796",
"c. c #31748A",
"v. c #2A4AA8",
"b. c #3C6DAA",
"n. c #454C98",
"m. c #465A9D",
"M. c #584C89",
"N. c #67518E",
"B. c #457C9E",
"V. c #4759A6",
"C. c #485AB4",
"Z. c #5558B5",
"A. c #7B58A5",
"S. c #4A63BB",
"D. c #5764BC",
"F. c #487FA6",
"G. c #7F66B7",
"H. c #68719A",
"J. c #5468D7",
"K. c #5874DA",
"L. c #536CCA",
"P. c #6774DC",
"I. c #6C6FD2",
"U. c #5A79E6",
"Y. c #6B7DFB",
"T. c #727FFC",
"R. c #6C7CE6",
"E. c #4A5FCC",
"W. c #F33585",
"Q. c #8C6996",
"!. c #976A91",
"~. c #8674B1",
"^. c #9A57B8",
"/. c #E37298",
"(. c #DC6B9D",
"). c #826BC6",
"_. c #C27BC7",
"`. c #3A819D",
"'. c #378DAF",
"]. c #498697",
"[. c #7E8389",
"{. c #4889A4",
"}. c #5489A2",
"|. c #5196AB",
" X c #57A7B3",
".X c #6EBCBE",
"XX c #74C7BC",
"oX c #5C86F7",
"OX c #5A80E1",
"+X c #6687EB",
"@X c #6C83F3",
"#X c #648BF4",
"$X c #6B8CF5",
"%X c #6484FD",
"&X c #6C85FD",
"*X c #648BFD",
"=X c #6B8BFE",
"-X c #6686F5",
";X c #7383FE",
":X c #748AFE",
">X c #7586F8",
",X c #6B91FC",
"<X c #6590FC",
"1X c #6E8CF2",
"2X c #68AAC0",
"3X c #79D7CB",
"4X c #7AD2D0",
"5X c #78E5C5",
"6X c #978A90",
"7X c #A89F99",
"8X c #B19290",
"9X c #8EB4AA",
"0X c #B3ACAD",
"qX c #CC8F8B",
"wX c #FC8684",
"eX c #FE938B",
"rX c #FF9791",
"tX c #D5AB9A",
"yX c #F2A69E",
"uX c #E993A3",
"iX c #D8ADA0",
"pX c #DAB6B8",
"aX c #CFB4A8",
"sX c #FEB9AB",
"dX c #F3B5AD",
"fX c #83D0BC",
"gX c #C5C3B8",
"hX c #C3C5AF",
"jX c #FCC8B9",
"kX c #FFC4AB",
"lX c #DFCD95",
"zX c #8480CA",
"xX c #B685E0",
"cX c #CAB7CE",
"vX c #EAB4CB",
"bX c #84D9D7",
"nX c #89D3C9",
"mX c #86E3DD",
"MX c #BBE0D8",
"NX c #B0E6E6",
"BX c #D0CCCA",
"VX c #FDD6C7",
"CX c #E7D8D7",
"ZX c #F7D0D0",
"AX c #FBE4CC",
"SX c #D0D5EF",
"DX c #EEDDE9",
"FX c #F7E9E9",
"GX c #F6EBF8",
"HX c #F6FFFC",
"JX c #FDFBFD",
"KX c #FDF5F7",
"LX c #F1F4F5",
"PX c #D0F2F1",
/* pixels */
"=X#X*X;X;X&X$X=XC.d s c d s l v v a.@X=X=X=X$X&X=X*X#X:X;X;X%X*X",
"=X@X:X*X*X>XD.C.^ _ D D 9.q.$.R / ( Z.V.m.C.$X&X;X*X&X,X#X=X1X;X",
"=X&X;X$X=X;Xl : ( W.vXZXlXt.w.0.;._ ( / / / C.Z.>X&X;X*X;X*X#X;X",
"=X=X&X1XU.K.l 3 h h BXBXlXq.5.6.} T ` [ W.] ! Q D.K.$X@X&X#X&X<X",
"&X=XU.K.h.O   O . X   X X X O O   o W W C T ;.;.! W P.P.&X:XY.;X",
"-X:Xh.. X o O   .       X X               o ~ E ;.] , , P.oX,X;X",
"=X1Xk.e % X + O = q = j - 1 = = 4 = * > o o o # W ! ^ ^ 4 M.oX$X",
"&X&X+X=Xn.o - & 0XKXLXGXyX4.FXKXLXGXqX<.5   o   ! ^ R E : l =X;X",
"=X&X&X=X+XOXI.Y.SXJX7X[.aXjX6X+.FXJXw.,.*.%.* X , k yXpX<./.Y.#X",
"&X,X$X;X+X!.cXBXGXJXx . iXVX;   BXJXdXsXwX<.#     x VXZXX.X.(._.",
"&X=X#X%X~.G kXAXAXFXaXaXyXwX:.&.VXFXVXVX..< > o . % eXrX9 0 rX/.",
"@X&X=X;X~.L uXsXsXyXsXsXw.,.<.=.qXqXjXVX8X6XX X } I ,.>.=.(.uXxX",
";X$XK.L.A.J | $.$.$.$.S -.%.9 2 X X 7XtXyXsXo.} <.2.%.@.:.:.=X;X",
",X#Xv.y %       .       X       b N b b *.,.<.3.3.%.O X v j.&X=X",
"&X:X=X%XS.a d c j $ 5 6 5 5 5 4 iXjXjXjXw.,.*.,.1 & s l +X=X;X>X",
"=XY.>X=X#X+X&X+XQ...*.,.1.1.3.1.,.2.<.2.1.,.U P $ p oX@X$X&X*X*X",
":X=X&X=X=X@X;X&XR.R.+.U I U A 6 6 7 ) $.-.^ 1 > : l ;X=X&X>X&X&X",
"*X&X=X@X;X=X&X@XI.N.h.g.W Q Q Q P P V B V V ` ;.;.` c v T.=X*X&X",
":X=X>X:XP.Q.~.^.N.v z z -.W.Z 8 V J cXBXgXBX$.Z ' ;.( / A.D.:X=X",
"%XoX).).0XBX9X.X6X!.( { -.| pXgXaXBXHXKXJXJXgXgX@.$.] _ 8 l oX=X",
",X:X+.F pXDXMXNX7XT qXuXI 0 GXHXJXKXJXJXKXKXJXKXO.F ^ ^ , l R.>X",
"@XoX~.!.#.g ZXHXnX'.4X4X0X8XBXCXGXJXJXLXKXJXCXCX..2 W ~ M.m.:X>X",
"&X;X;X=XJ.y.SXHXNXbXbX4XPXHX7.w CXLXGXFXKXFXP 6 5 j 3 g #X+X*X&X",
"=X-X=X*XS.s.F.H..X5XbX4XfXnXnXbX7.O.O.O...#.].].B.x.j.v.T.:X+X;X",
"$X=X&X%XS.a.S.c..XbXnX4XnX3XmX3XnX4XfX4X{.x.`.`.j.v.Y.Y.%X%X=X>X",
"=X%XV.r i.y.z.B.XXmX3XbX2X{.|.{.4XbX|.{.{.].{.`.f.p.v.v.=X=X-X&X",
"L.j.n J 9.e.H.u.|. X X Xb.f.l.f.|. XB.x.z.k.l.k.i.p.n M c m.%X:X",
"C.X 1 1 5.q...n n n k.f.L.K.p.s.v.v z.x.u.y.y.y.M k G K @ s :X%X",
"C.. O o 3 > 0 0 F H l p U.*XJ.E.J.E.p.i l M m M K G P P @ u =X=X",
"K.k.u o . X . O 5 9 @   I.%X=X&XU.L.7.8.K K G G L w 9 0 m.Z.=X=X",
"&X;Xb.p d s & +   . a s U.<X-X=Xa - e.r.Y 9 L 9 H J d v Y.=X*X$X",
"#X;X-X=X=X&Xn.t y r U.=X:X@X&X@Xj.t f t r f r y t a.;X:XoX&X:X;X"
};
