/* XPM */
static char *d25dee49e1854200b649a35b1ba9c924Gf5FfbpBFOuzn9uC[] = {
/* columns rows colors chars-per-pixel */
"32 32 249 2 ",
"   c #030302",
".  c #0D0101",
"X  c #070608",
"o  c #140001",
"O  c #1A0002",
"+  c #16030B",
"@  c #040515",
"#  c #160515",
"$  c #121317",
"%  c #230001",
"&  c #2C0001",
"*  c #26020A",
"=  c #3B0000",
"-  c #350006",
";  c #2F0812",
":  c #3B161A",
">  c #351219",
",  c #2F221E",
"<  c #000527",
"1  c #000237",
"2  c #101636",
"3  c #340C27",
"4  c #2B2C28",
"5  c #2D3237",
"6  c #3B363C",
"7  c #2D212F",
"8  c #4B0013",
"9  c #461919",
"0  c #4F1407",
"q  c #63181F",
"w  c #472700",
"e  c #512A01",
"r  c #58211D",
"t  c #462F0E",
"y  c #441132",
"u  c #411921",
"i  c #7F1B2C",
"p  c #42363A",
"a  c #542F2F",
"s  c #6A332B",
"d  c #752A3C",
"f  c #6F332C",
"g  c #554A39",
"h  c #6E4A34",
"j  c #6A603C",
"k  c #544116",
"l  c #00014A",
"z  c #10134F",
"x  c #162259",
"c  c #1B2642",
"v  c #262A5C",
"b  c #313656",
"n  c #183375",
"m  c #19286B",
"M  c #38396C",
"N  c #28387A",
"B  c #353D76",
"V  c #272D72",
"C  c #311B67",
"Z  c #711E45",
"A  c #573656",
"S  c #472F54",
"D  c #78344E",
"F  c #4B366A",
"G  c #4D3B76",
"H  c #6E386C",
"J  c #471D4F",
"K  c #234A6D",
"L  c #274E7A",
"P  c #334E79",
"I  c #52444C",
"U  c #6D524F",
"Y  c #73605A",
"T  c #71624D",
"R  c #4E4D69",
"E  c #594667",
"W  c #464A76",
"Q  c #54497B",
"!  c #4E5371",
"~  c #6E5965",
"^  c #775A65",
"/  c #705E78",
"(  c #6D4D72",
")  c #736E74",
"_  c #51686F",
"`  c #8B3433",
"'  c #8A4439",
"]  c #825736",
"[  c #80542D",
"{  c #8C2F4B",
"}  c #8C3966",
"|  c #9D554B",
" . c #8D534F",
".. c #A5445B",
"X. c #AB5658",
"o. c #AF5751",
"O. c #946653",
"+. c #AD6C59",
"@. c #964677",
"#. c #94446D",
"$. c #AD4D67",
"%. c #A84A7B",
"&. c #B3576F",
"*. c #8E7173",
"=. c #B9676C",
"-. c #BC7979",
";. c #AD726C",
":. c #C75872",
">. c #CA7A76",
",. c #D27170",
"<. c #E07F79",
"1. c #C84B5D",
"2. c #B8867B",
"3. c #B68C6F",
"4. c #92867A",
"5. c #CB837D",
"6. c #D2837C",
"7. c #C5B079",
"8. c #2B3785",
"9. c #3B378E",
"0. c #4F3783",
"q. c #3A4B90",
"w. c #3949AD",
"e. c #454688",
"r. c #5A5888",
"t. c #515D9A",
"y. c #4F508C",
"u. c #6A548D",
"i. c #59609A",
"p. c #55799B",
"a. c #4A6E91",
"s. c #766787",
"d. c #727493",
"f. c #594FA4",
"g. c #4A56A5",
"h. c #5058B1",
"j. c #6A58AC",
"k. c #4E62BC",
"l. c #5966B8",
"z. c #576EAC",
"x. c #746ABB",
"c. c #6A6FB4",
"v. c #586EC5",
"b. c #566CCA",
"n. c #6876CC",
"m. c #7476C6",
"M. c #6877D9",
"N. c #737CD7",
"B. c #717BE5",
"V. c #727EF3",
"C. c #6D7CEF",
"Z. c #835285",
"A. c #945791",
"S. c #B1588A",
"D. c #8B7A8A",
"F. c #B36C88",
"G. c #847CB4",
"H. c #B17AA2",
"J. c #C36587",
"K. c #C65D88",
"L. c #997EC1",
"P. c #867EE1",
"I. c #548D92",
"U. c #508A94",
"Y. c #6D8690",
"T. c #5F80A9",
"R. c #7091B1",
"E. c #6EA7B6",
"W. c #68A4A2",
"Q. c #7984CA",
"!. c #7885D8",
"~. c #6C80C9",
"^. c #6D85EB",
"/. c #6D88E7",
"(. c #7384E3",
"). c #7385EC",
"_. c #7C86EB",
"`. c #748AEC",
"'. c #7989E6",
"]. c #6D85F2",
"[. c #6C88F3",
"{. c #6D8CFB",
"}. c #7485F3",
"|. c #7984F4",
" X c #738AF3",
".X c #7584FB",
"XX c #738AF9",
"oX c #7C89FB",
"OX c #7988F7",
"+X c #7590F8",
"@X c #948E8A",
"#X c #BB8983",
"$X c #B6928F",
"%X c #BBA291",
"&X c #8C8AB4",
"*X c #A5A6B3",
"=X c #A591AD",
"-X c #CD888B",
";X c #D7898B",
":X c #C5859A",
">X c #D49490",
",X c #EB8D8B",
"<X c #D2AC91",
"1X c #E3A097",
"2X c #D29EA2",
"3X c #DAB4AD",
"4X c #D9B6B6",
"5X c #CDB0A9",
"6X c #FAABA5",
"7X c #EBB8B4",
"8X c #F4B7B3",
"9X c #EEADAE",
"0X c #99C6BE",
"qX c #B5C1B3",
"wX c #C9C9BE",
"eX c #EDD1B9",
"rX c #8986C6",
"tX c #8585D8",
"yX c #908CD8",
"uX c #A997D2",
"iX c #8ABCC5",
"pX c #8188E5",
"aX c #8189FA",
"sX c #AFABF6",
"dX c #C7B2C8",
"fX c #E9B6C8",
"gX c #97CCC8",
"hX c #9BD6D9",
"jX c #97D2CE",
"kX c #A9CAC8",
"lX c #ACCCCC",
"zX c #A7DEE3",
"xX c #E7C9C6",
"cX c #FDD3CB",
"vX c #E6D8D5",
"bX c #F4CFCE",
"nX c #FFE9DC",
"mX c #CDD3F2",
"MX c #EFDAE7",
"NX c #F8E6EA",
"BX c #FDF1ED",
"VX c #F5ECF1",
"CX c #FEF4F4",
"ZX c #FFF9F4",
"AX c #FBF3FC",
"SX c #FDFAFC",
"DX c #F1F9FB",
"FX c #ECECF1",
"GX c #D7DBDF",
/* pixels */
"XX].XX}.}.}.]. X|.OX}.}.|.!.8.P B M B B B B B j.`.{.V..XXX[.`.`.",
"]. X X}.XX^. X^._.B.f.j.f.j.A.u.E s.*X&XQ y.j.u.g.l.oXV.}. X^.^.",
"^. X X}. X X`.^.b.f.Z.@.} S.%.K.1X<XeXeXbXfXS.Z.3 Q pX|.^.[.[.{.",
" X}.XX}.^.'.l.x.0.u.S.:.:.:.` { >.3.7.<XeXfXZ Z 3 F c.N.+X^.{.{.",
"V.V..X.XM.m.H } K.K.{ { { d - % O o     . + + o # @ 1 q.n.M..X.X",
"oXaXB.n.V C S.:.{ { 8 - % % .     X $ X         X @ < 1 l w.}.V.",
".XB.0.F ( #.#.{ 8 - * * 9 : 6 p 6 6 , 4 6 6 6 4 @ $ @ 2 z g.).oX",
"[.tXF 3 { D #.{ % * O a #X%XNXFXAXNX*.5XVXDXDXwX2 c < ! Q.N.).].",
" XP.H.J.9X9XD 9 + ; ;.>.,.>XZXFXD.@XxX5X) *XSXmXR.n.~.!.'./.[. X",
"yXuX;.-.cXcXa + + : J.,X6X8XBXvXo : cX3X. I AXVXzXsXc.m.'.`.+X[.",
"$X2X] ] 1X2X> X $ u q +.cXcXnXxX+.-.>X9X5X5XnXMXVXfX/ G.~.[. X[.",
":X#X3.+.>.-X^ Y O & J.;XcXbX%X%X-.>.>.;XeXeX3X7XfX1X .D.!.[.`./.",
"P.L.F.;.=.=.;X>. .O.8X8X2X$X. . s f +.+.| +.o.o.o.X.U / c.M.[./.",
"V.P.H D & = =.>.5.6.>.-.U Y ) U o & - 8 - = 8 = & & + z 8.w.`. X",
"V.pXtXG.G A ; r 6.,.6.,XeXeXeX3Xr s s s s s 9 a A F M i.(.}.OX).",
"OX_.(.'.Q.G.J : ' o.<.,.-X2.-X2.2.#X2.2.#XF.*.s.R.Q.Q.!.).XXC.oX",
"|._.|.B.).tXS > r r X.$.X.X.s f s f O.O.| *.G.P.Q.!.B.|.].[..XXX",
"V.|.`.B.9.0.A.&.;.O.d Z d d ' '  .` ' ` d A y.v.'.pXP.P.]..X].}.",
".XaXh.j.A.%.:.,.` | 7XxXxX7X[ ` ` ` 1.$.D u.i.i.x.m.j.B.}. XXX X",
".XB.9.J S.:.1.,.6X8XCXZXCXCX3X6X6X8X&.&.@.Z.d.G.uXuXmXsXx.N.(.^.",
"}.!.F y } ..` ;.BXCXBXCXSXSXBXZXVXMXs  .>X:XA =XFXmXMXdX~ d.!.+X",
"}.pXu.( D #.s *.vXvXSXCXSXZXSXVXMXfX3.<X7XdXD.5XDXmXc / *.D.!.].",
".XB.Q.&XJ y p a U Y MXCXBXFXFXxXU 4.ZXFXkXlXlXmXDXmXx z.tXtX_.).",
".XXXXXN.0.G u.) *.*./ ) ) Y.) @XwXqXkXlXjXjXhXiXY.d.n k.).|.).OX",
"{.[.^.[.N.N.e.W p.d.a.Y.kX0XgXgXjXjXjXjXhXjXhXiXa.a.8.k. XV.[.^.",
"^.]. X'.q.w.8.8.p.T.I.p.I.W.hXjXI.U.U.E.hXhXzXiXU.a.2 c V g./.`.",
"oX).g.e.r.r.V n y.q.q.a.a.a.W.W.K L q.U.E.R.E.I.K d.5X$XI / q.l.",
"|.pXV 2 ^ ~ ! y.x x z m a.a.L L n L z.z.L P _ _ P ) %X4.t p 1 g.",
"`.!.b 7  . .T T R ! W W l m k.v.k.v./.~.m b T j j g 9 : + # < t.",
"[.!.r._ I h [ j Y ~ / s.rXrXx.n.`.[./.v.l 2 g k . O * # # b e.c.",
"XX X'.Q.M p h [ h O.k 4.eX5X4 B `.[.+Xn.B b X   . $ b F v t.!._.",
"].XX/./.tX&Xs e e w e e w t , P (.{.}.'.rXc.5 5 4 R &XrX!.!._.|."
};
