/* XPM */
static char *b580fd5d1c3f4ca89865e5a472b99624gJE9NHAAnjQFGRrZ[] = {
/* columns rows colors chars-per-pixel */
"32 32 227 2 ",
"   c #020300",
".  c #080700",
"X  c #0E001F",
"o  c #0B1500",
"O  c #070032",
"+  c #33343C",
"@  c #3B3A38",
"#  c #212727",
"$  c #747B35",
"%  c #050345",
"&  c #4B484B",
"*  c #838732",
"=  c #A8A33F",
"-  c #F99D16",
";  c #FAA506",
":  c #FBB40B",
">  c #F9A718",
",  c #FEBF13",
"<  c #FFB21D",
"1  c #FCB819",
"2  c #D6813C",
"3  c #DA973C",
"4  c #E99A2C",
"5  c #ED9C30",
"6  c #F59834",
"7  c #FD9A25",
"8  c #DCAF2E",
"9  c #D1B139",
"0  c #F8A725",
"q  c #FBB023",
"w  c #FAAA38",
"e  c #E8A834",
"r  c #FAC700",
"t  c #FFCA03",
"y  c #F9CA04",
"u  c #FDD301",
"i  c #FCD900",
"p  c #FED40A",
"a  c #F7D80D",
"s  c #FBC51C",
"d  c #F6C818",
"f  c #FFDB15",
"g  c #FFD41D",
"h  c #F8D515",
"j  c #FCE50D",
"k  c #F7EA0F",
"l  c #EBE11F",
"z  c #F7E914",
"x  c #FAE716",
"c  c #EEC721",
"v  c #FCCC22",
"b  c #FAC427",
"n  c #FBD629",
"m  c #FFDC25",
"M  c #F8C837",
"N  c #FBD536",
"B  c #E7DE39",
"V  c #FCEC2B",
"C  c #FBE627",
"Z  c #FFF125",
"A  c #FBEC33",
"S  c #FEE53C",
"D  c #F7EF3C",
"F  c #FDEC3C",
"G  c #F6E736",
"H  c #FEF13B",
"J  c #FAF234",
"K  c #ECE733",
"L  c #909158",
"P  c #A0944C",
"I  c #9DA049",
"U  c #B8AE5D",
"Y  c #9E9962",
"T  c #9DA367",
"R  c #D49C4F",
"E  c #D7965E",
"W  c #E28446",
"Q  c #DBB842",
"!  c #F8BE40",
"~  c #E3B941",
"^  c #DC9466",
"/  c #DA9874",
"(  c #D4876C",
")  c #E58A6B",
"_  c #E89263",
"`  c #D1A262",
"'  c #C5BC6D",
"]  c #F6C545",
"[  c #FEE545",
"{  c #F3EE42",
"}  c #FBED45",
"|  c #FCEB4A",
" . c #F7E344",
".. c #F6F545",
"X. c #F9F34D",
"o. c #F5EC55",
"O. c #F4EA5D",
"+. c #FBED5A",
"@. c #FDEA55",
"#. c #FDF251",
"$. c #FBF15B",
"%. c #DFDD70",
"&. c #DAD074",
"*. c #FDDA72",
"=. c #EEEF65",
"-. c #F5EB69",
";. c #FAED6A",
":. c #F3E965",
">. c #F9F364",
",. c #FBF26D",
"<. c #F9F56A",
"1. c #F8EB7A",
"2. c #FDF274",
"3. c #FBF57D",
"4. c #FFFA71",
"5. c #EDFA6C",
"6. c #6C7EFF",
"7. c #777DFB",
"8. c #7A7EEC",
"9. c #A67DBF",
"0. c #C57DA5",
"q. c #9B7ECE",
"w. c #907DEE",
"e. c #5B8DEE",
"r. c #5F8DFC",
"t. c #5D90F9",
"y. c #6C8AEE",
"u. c #6987EC",
"i. c #728AEC",
"p. c #7989EC",
"a. c #6D92EE",
"s. c #6785F5",
"d. c #6C85F4",
"f. c #658CF4",
"g. c #6A8AF5",
"h. c #6585FE",
"j. c #6C85FE",
"k. c #648BFE",
"l. c #6B89FE",
"z. c #7383F5",
"x. c #748AF3",
"c. c #7284FE",
"v. c #728AFD",
"b. c #798CFF",
"n. c #7D83FF",
"m. c #6B91FC",
"M. c #6B92F7",
"N. c #7A92FF",
"B. c #7490F9",
"V. c #AD8D9B",
"C. c #BF909A",
"Z. c #9F88B4",
"A. c #AC80A4",
"S. c #BA95AB",
"D. c #AA84B6",
"F. c #B68CB9",
"G. c #AE93BD",
"H. c #BC83A3",
"J. c #9DA7A9",
"K. c #BDB3AA",
"L. c #C88C8C",
"P. c #C88892",
"I. c #D3BE93",
"U. c #CFB1B1",
"Y. c #C6AEA3",
"T. c #BFC1AB",
"R. c #D0CF8E",
"E. c #C7CC96",
"W. c #E6CE94",
"Q. c #E7D58E",
"!. c #FFEC85",
"~. c #FFFD8E",
"^. c #F9F787",
"/. c #FCEE9B",
"(. c #F7E39A",
"). c #FCF49F",
"_. c #F9F89A",
"`. c #E3E49E",
"'. c #C3C1B5",
"]. c #FDEDA5",
"[. c #F8F8A7",
"{. c #F6FABE",
"}. c #FCF8B7",
"|. c #E2E3A7",
" X c #9B89C9",
".X c #8B8CDF",
"XX c #9083DB",
"oX c #9487D6",
"OX c #8490DC",
"+X c #9A97DA",
"@X c #AA8FC2",
"#X c #A697C7",
"$X c #A78CD6",
"%X c #B29ACC",
"&X c #AFA3D0",
"*X c #8384EA",
"=X c #838DED",
"-X c #8888E7",
";X c #8093EF",
":X c #9E98E5",
">X c #8986F4",
",X c #9191F1",
"<X c #A39DE5",
"1X c #98A2EA",
"2X c #D7D8CA",
"3X c #DEE0CA",
"4X c #FDF6C7",
"5X c #FBF9C7",
"6X c #FFF6D4",
"7X c #FDFDD3",
"8X c #FEFCDB",
"9X c #F4FFD2",
"0X c #E9EED7",
"qX c #E2DFEA",
"wX c #FDF6E6",
"eX c #F7FFE6",
"rX c #FDFEE4",
"tX c #F7FFEE",
"yX c #FCFDEC",
"uX c #F4F4EC",
"iX c #FDF5F1",
"pX c #FEFDF3",
"aX c #FFF7FE",
"sX c #F3FCFC",
"dX c #FDFDFB",
"fX c #F6FBF5",
"gX c #EBECE7",
/* pixels */
"l.l.l.l.j.l.j.l.k.l.6.b.s.l.l.g.k.u.l.c.c.l.f.v.l.l.l.l.j.j.l.l.",
"l.l.l.j.l.l.j.l.g.j.v.u.g.j.d.:X>Xg.c.v.j.d.f.l.l.l.l.j.l.l.j.l.",
"l.l.l.l.l.l.l.l.g.l.v.k.i.l.<X:.` v.j.l.j.v.j.l.l.l.j.l.l.l.l.l.",
"l.l.j.l.l.h.j.l.j.l.s.f.6.d.Q.~.i 9.l.y.k.v.c.l.l.l.l.l.l.h.j.l.",
"l.l.h.j.l.l.l.l.v.v.k.x.k.G.4X}.| 3 =Xu.l.k.d.l.l.l.l.l.l.l.l.l.",
"l.l.l.l.l.j.l.j.s.j.g.h.7.Q.eX[.3.d D.g.j.k.s.l.l.j.l.l.l.j.l.j.",
"j.l.l.l.l.j.l.l.k.b.b.g.G.6XsX}.^. .R .Xj.j.v.k.j.l.h.l.l.j.l.j.",
"l.l.j.l.l.l.l.j.g.c.k.8.W.tX8X].].$.d 9.l.z.c.f.j.l.j.l.l.l.l.l.",
"6.l.6.M.u.c.b.f.l.h.7.E.wXaXrX5X/.5.| 8 XXj.c.i.l.7.l.z.v.k.z.k.",
"k.j.b.j.l.j.d.k.x.w.Y.7XsXtXpX4X/.!.^.[ 4 q.f.d.s.g.l.k.g.b.h.l.",
"v.y.s.k.c.=X*X@XK.`.pXtXtXyXuX5X_.1.,.2. .b P. X-X,Xp.r.k.x.j.n.",
"h.M.+XU.R.W.(.4XiXfXdXpXaXdXdX4X[.^.3.!.2.} g b w 8 ` L.F.p.k.k.",
"h.#X{.dXyXfXwXdXdXtXwXpXT.J.uX6X_.&.P %.$.} #.[ g r t s > E p.j.",
"v.$X*.8XpXdXtXrXtXdXpXgX@ . 2X9X[.L   U <.O.+.V h g N ] - / N.f.",
"z.l.V.l }.iXdXdXpXpXaX0X+   '.7X(.L   Y <.=.X.F h p c ; 2 .Xk.l.",
"l.l.x.H.i _.tXyXyXtXdXqX. # '.8X).$ % Y 2.+.o.J p s ; 2 oXk.u.c.",
"c.k.k.f.P.i _.5XrXwXfX2Xo & '.}.!.$ % T $.@.o.V g 0 W oXt.y.k.c.",
"h.i.v.c.i./ V [.{.7X7X|.+ + R.~.>.* % I J $.H x < 4 D.v.i.g.k.c.",
"k.z.l.c.r.w.e 4.4X5X)._.& X Q.$...I O U H G H N 7 V.g.k.j.g.l.l.",
"l.j.k.k.z.t.F.S ^.1.2.=.&.&.:.#...K 9 B A A C t ( x.l.c.k.g.v.k.",
"l.z.j.k.k.v..XM ;.1.2.,.<.4.2.o.D J H H H k C 1 D.M.c.n.l.l.k.j.",
"l.v.l.s.k.c.-XQ $.;.$.-.-.o.;.#.{ A F V a j f w XXv.l.g.j.l.y.c.",
"l.c.k.g.i.k.;X] D 2.,.-.,.$.$.o.D C } z j x u 5 -Xl.l.j.k.g.c.k.",
"f.z.j.k.c.g.1Xw } O.O.>.-.:.o.o.K Z C k a g r 5 *Xk.g.x.k.c.l.l.",
"c.k.c.j.a.l.<XM A #.} } | #.| @.D x k f p p v w $Xd.f.l.c.l.v.l.",
"l.t.g.c.l.h.:XN ..} S Z G S n a r t n n p s M : $Xv.z.j.l.k.g.l.",
"z.g.k.j.g.j.%Xg F C N y : - ) ^ _ 6 < 1 b v s < G.l.z.j.k.l.c.l.",
"v.c.h.c.g.k.&Xm S a s 4 0.w.r.a.N.-XF.) q s M < L.l.c.c.k.g.j.g.",
"k.l.f.l.l.b.Y.t t 5 P.*Xl.c.c.v.f.g.m.l.$X^ < : ( v.j.l.l.l.l.s.",
"l.g.g.l.l.x.S.e L.w.k.e.g.v.d.g.l.g.v.s.x.=XS.5 ( g.k.g.l.l.j.j.",
"j.l.c.c.l.h.b.-Xc.g.l.v.v.l.h.g.n.c.j.j.c.k.m.=XoXh.l.l.l.g.g.g.",
"c.k.k.k.v.z.m.l.k.g.6.g.l.l.l.f.k.l.k.l.c.j.l.x.k.h.x.l.j.l.c.l."
};
