/* XPM */
static char *e816d12c9e474982d910cd6b8649860dMxLyBu88g24dllU0[] = {
/* columns rows colors chars-per-pixel */
"32 32 224 2 ",
"   c None",
".  c #151914",
"X  c #171A15",
"o  c #191A15",
"O  c #1C1B15",
"+  c #1D1B15",
"@  c #1E1B15",
"#  c #2A1D15",
"$  c #2A1E15",
"%  c #2C1D15",
"&  c #311F16",
"*  c #321F16",
"=  c #342016",
"-  c #3E2518",
";  c #3E2519",
":  c #432112",
">  c #442112",
",  c #442212",
"<  c #452212",
"1  c #442213",
"2  c #452213",
"3  c #462213",
"4  c #472213",
"5  c #472313",
"6  c #462314",
"7  c #492212",
"8  c #482312",
"9  c #492312",
"0  c #482313",
"q  c #492313",
"w  c #4B2312",
"e  c #4B2313",
"r  c #4A2413",
"t  c #4A2314",
"y  c #4C2514",
"u  c #4D2514",
"i  c #4D2614",
"p  c #4E2614",
"a  c #422418",
"s  c #442619",
"d  c #442719",
"f  c #452719",
"g  c #46271A",
"h  c #482618",
"j  c #492618",
"k  c #4A2618",
"l  c #4B2618",
"z  c #4A2718",
"x  c #4D2719",
"c  c #462819",
"v  c #47281A",
"b  c #49281A",
"n  c #49291A",
"m  c #4B281A",
"M  c #4A2A1A",
"N  c #4A2A1B",
"B  c #4B2A1B",
"V  c #4F2918",
"C  c #4D2A19",
"Z  c #4D2B1A",
"A  c #4E2A1A",
"S  c #4E2B1A",
"D  c #4F2B1A",
"F  c #4E2B1B",
"G  c #4F2B1B",
"H  c #4E2C1A",
"J  c #48291C",
"K  c #4C291F",
"L  c #4F2C1F",
"P  c #502614",
"I  c #502716",
"U  c #502918",
"Y  c #502919",
"T  c #512A18",
"R  c #502B1A",
"E  c #502A1B",
"W  c #502B1B",
"Q  c #542B18",
"!  c #562B19",
"~  c #552B1A",
"^  c #562B1A",
"/  c #572B1A",
"(  c #522D1B",
")  c #552C1A",
"_  c #512C1C",
"`  c #512D1D",
"'  c #532D1C",
"]  c #562C1C",
"[  c #562D1C",
"{  c #592C1B",
"}  c #582D1B",
"|  c #592D1B",
" . c #5A2D1B",
".. c #5B2D1B",
"X. c #5A2E1B",
"o. c #5C2E1B",
"O. c #5C2F1B",
"+. c #5D2F1B",
"@. c #5C2E1C",
"#. c #5D2E1C",
"$. c #5D301A",
"%. c #5D301B",
"&. c #5F301B",
"*. c #5C301D",
"=. c #5F301C",
"-. c #60301C",
";. c #60311C",
":. c #61311C",
">. c #63321C",
",. c #63331D",
"<. c #64321D",
"1. c #4C2C21",
"2. c #5A3021",
"3. c #5A3122",
"4. c #5A3322",
"5. c #5A3223",
"6. c #5B3223",
"7. c #5B3323",
"8. c #5D3323",
"9. c #5A3324",
"0. c #5B3324",
"q. c #5C3224",
"w. c #5B3527",
"e. c #653726",
"r. c #773E29",
"t. c #753E2A",
"y. c #773E2A",
"u. c #773F2A",
"i. c #783E2A",
"p. c #783F2A",
"a. c #783F2B",
"s. c #884121",
"d. c #884122",
"f. c #894122",
"g. c #884123",
"h. c #8A4123",
"j. c #894223",
"k. c #8A4222",
"l. c #8A4322",
"z. c #8A4223",
"x. c #8F4524",
"c. c #8F4525",
"v. c #8B452B",
"b. c #88462D",
"n. c #89472D",
"m. c #954723",
"M. c #914624",
"N. c #914625",
"B. c #924625",
"V. c #924725",
"C. c #934725",
"Z. c #924726",
"A. c #934726",
"S. c #944725",
"D. c #944726",
"F. c #924825",
"G. c #934825",
"H. c #924826",
"J. c #934826",
"K. c #934927",
"L. c #944825",
"P. c #954825",
"I. c #954925",
"U. c #964824",
"Y. c #974824",
"T. c #974924",
"R. c #974925",
"E. c #944826",
"W. c #954826",
"Q. c #944926",
"!. c #954926",
"~. c #944827",
"^. c #954827",
"/. c #944927",
"(. c #954927",
"). c #964826",
"_. c #964926",
"`. c #974926",
"'. c #964927",
"]. c #974927",
"[. c #974A26",
"{. c #974A27",
"}. c #9C4A23",
"|. c #984924",
" X c #984925",
".X c #9A4A24",
"XX c #9A4A25",
"oX c #984926",
"OX c #984A27",
"+X c #994A27",
"@X c #994B27",
"#X c #9B4B26",
"$X c #9D4B26",
"%X c #984B28",
"&X c #994B28",
"*X c #9A4B28",
"=X c #9B4C28",
"-X c #9A4C2B",
";X c #9C4C28",
":X c #9D4D29",
">X c #9E4E29",
",X c #9C4D2D",
"<X c #A04E2B",
"1X c #A14F2B",
"2X c #A3512A",
"3X c #A3502B",
"4X c #A5512A",
"5X c #A4502B",
"6X c #A4512B",
"7X c #A5512B",
"8X c #A6512B",
"9X c #A5522B",
"0X c #A6522B",
"qX c #A4512C",
"wX c #A5512C",
"eX c #A5512D",
"rX c #A6512C",
"tX c #A5522C",
"yX c #A6522C",
"uX c #A7532C",
"iX c #AC542C",
"pX c #AC552C",
"aX c #AD552D",
"sX c #AD552E",
/* pixels */
"-XsXwX7XwX7X7XwXwXwXwXwXwXwX:Xw.  2X7X7XwXwXwXwXwX7XqXwXwXwXiXb.",
"g._.V.V.G.V.V.G.V.V.V.V.V.V.V.^ ,._.V.V.V.V.V.V.V.G.V.V.V.V.D.t.",
"g.=X_.G._.~.G._.~._.V._._.~.V.x #._._.V._.D.D._.G._._._._._._.p.",
"g.=X_.G.V.V._.V.V._.~.~.V._.V.R *._.V._.~.V._.~.G.~.G.~.V.G.XXp.",
"z.&XV._.~.~._.V.~._.V.V.D.D.V.I O._.Z._.V.~._.V._.~.~.V._.G._.p.",
"z.&X~.~._.V._.~.V._.~._.D.D.V.R O._._.V.V._.~.V.V.V._._.V._.XXp.",
"z.&X_.V.V._.V.~.V.~.G._._._.V.T O._.V._.~.~._._.~._.G.~.G.~._.t.",
"z.&XV._.~.~.V._._.~.G.G.V._.M.T O._._.V._.V.V.~.~.V.~.G._._.XXp.",
"g.-X_._._._._._._.~.~.XX_._.G.R *._._._._._.~.~._._._.~._._.XXt.",
"I 3 : 3 : 3 3 r r 6 : : : 3 6 $ % : : 3 3 6 r y y 6 3 3 6 3 8 1.",
"  _ C C H R b @ o v W F H F W _ ( W H H C G j @ @ b F H H H _   ",
"-XpX7X7XwXwX1XE _ 7XwXwX7XwX7XwX7X7X7X7XwXwX:Xa | wXwXwX7X7XsXn.",
"g.XXV.V.V.G.~.| #._.Z.V.~.V.Z.Z.G.G.V.V.V._.x.j ,.V.Z.Z.G.G._.t.",
"g.=X_.G._.~.V.| { _.V._._.~.V._._.G.G._._._.x.g ,._.~.G.G._.XXp.",
"g.=XG.G.G.~.D.| { _.G.G.V.V.~.~.V._._.V.V.~.x.j -.D._.G._.G._.p.",
"g.=XG._.~.G.D.| { _._.G.~._._.V.~.~.V._.V._.x.j ,.D.~.G.G.G.XXp.",
"g.XXG.~._.D.D.| | ~.~.G.~.V._.V._._.V.~.G.~.x.j ,._.V._.V.G._.p.",
"g.-X~.G.~._.D.| | G._.G._._.G._.V.~.V._.V._.x.j ,.D._.D._.~.XXp.",
"l.-XG._.G.~._.| | _._._.V.~._.V._._.~._.G._.x.j ,.D.D.D.V._._.p.",
"g.;X&X~.XX~._.| #._.&X~.&X~._._._.&X~.~._.&XG.x ,.D._.&X_.&XXXp.",
"( y 8 8 8 8 r = = 8 8 8 q 8 q I y r 8 8 8 8 3 $ = q 8 8 8 8 8 G ",
"  J g j g g g b J v g v g g ; o . ; g g g g g b b g g g g g J   ",
",XsXwXwXwXwXwXqXwXwXwXwXwXwX1Xj [ 1X7XwX7XwXwXqXwXwXwXwXwXwXsXv.",
"z.XXG.G.~.G.~.G.G._.G.G.D.~.V.^ ,.D.D.D._.V.G._.G._.V._.D._.D.p.",
"z.~.D.G._.~.G.G.V.~._._.G.~.V.^ | _.V._.V._._.~._.G.~._.V.~.XXt.",
"g.-X_.V.V._._.~._.~.V.~.G._.V.^ #._.~.~.~.~.V.G.~.G.G.~.~.~.XXa.",
"g.=XG._.V._.V.~._.V.V._.~.~.V.^ O._._.V._.V.G.~._._.V.G.G._._.p.",
"l.=X_.G.~.~.V._.~.V._.~._.G.V.] { _.~.V._.~._.~.V.~.~._.G.G.XXp.",
"g.-XG.G._.~._.V.V._.V._.D._.V.^ %._.G._.D._.V.D._.V._.V._.G.XXt.",
"g.%X~._.Z.~._.~._.V._.V._.D.V.^ %._.~.G.~.D._.~.V._.V._.G.~._.p.",
"g.;X_.XX_.XX_.XX|.XX_.XX_.XXm.{ ,.XX_.XXXX_.XXXXXX_.XX_._.XX}.p.",
"e.3.3.3.3.9.9.3.w.3.9.9.3.3.3.    q.3.9.9.9.9.9.9.3.3.9.9.q.3.L "
};
